<?xml version="1.0" encoding="utf-8"?>
<!-- Generator: Adobe Illustrator 18.1.1, SVG Export Plug-In . SVG Version: 6.00 Build 0)  -->
<svg version="1.1" id="Layer_1" xmlns="http://www.w3.org/2000/svg" xmlns:xlink="http://www.w3.org/1999/xlink" x="0px" y="0px"
	 viewBox="-5 322 1656 1152" enable-background="new -5 322 1656 1152" xml:space="preserve">
<path fill="#FFFFFF" d="M1577,550V448.2l-20.7-6.7c-120.1-39-245-58.8-371.3-58.8c-122.8,0-244.4,18.7-361.5,55.7
	c-117.1-36.9-238.7-55.7-361.5-55.7c-126.3,0-251.2,19.8-371.3,58.8L70,448.2V550H10v897h813h1h813V550H1577z M1517,492v854.4
	c-108-31.1-219.4-46.8-332-46.8c-112.2,0-223.4,15.6-331,46.5V491.7c107.4-32.6,218.6-49,331-49C1297.7,442.7,1409.3,459.3,1517,492
	z M130,492c107.7-32.8,219.3-49.3,332-49.3c12,0,24,0.2,36,0.6V778l65-30l65,30V454.8c55.7,8.2,110.9,20.5,165,36.9v854.4
	c-107.6-30.9-218.8-46.5-331-46.5c-112.6,0-224,15.7-332,46.8V492z"/>
</svg>
