<?xml version="1.0" encoding="utf-8"?>
<!-- Generator: Adobe Illustrator 18.1.1, SVG Export Plug-In . SVG Version: 6.00 Build 0)  -->
<svg version="1.1" id="Layer_1" xmlns="http://www.w3.org/2000/svg" xmlns:xlink="http://www.w3.org/1999/xlink" x="0px" y="0px"
	 viewBox="0 0 87 74" enable-background="new 0 0 87 74" xml:space="preserve">
<path fill-rule="evenodd" clip-rule="evenodd" fill="#FFFFFF" d="M55.5,1h-24c-4.4,0-8,3.6-8,8v56c0,4.4,3.6,8,8,8h24
	c4.4,0,8-3.6,8-8V9C63.5,4.6,59.9,1,55.5,1z M43.5,69c-2.2,0-4-1.8-4-4c0-2.2,1.8-4,4-4s4,1.8,4,4C47.5,67.2,45.7,69,43.5,69z
	 M59.5,57h-32V9h32V57z"/>
<g>
	<path fill="#FFFFFF" d="M84.4,65.5"/>
</g>
</svg>
