<?xml version="1.0" encoding="utf-8"?>
<!-- Generator: Adobe Illustrator 18.1.1, SVG Export Plug-In . SVG Version: 6.00 Build 0)  -->
<svg version="1.1" id="Layer_1" xmlns="http://www.w3.org/2000/svg" xmlns:xlink="http://www.w3.org/1999/xlink" x="0px" y="0px"
	 viewBox="0 0 165 74" enable-background="new 0 0 165 74" xml:space="preserve">
<path fill-rule="evenodd" clip-rule="evenodd" fill="#FFFFFF" d="M156,1h-24c-4.4,0-8,3.6-8,8v56c0,4.4,3.6,8,8,8h24
	c4.4,0,8-3.6,8-8V9C164,4.6,160.4,1,156,1z M144,69c-2.2,0-4-1.8-4-4c0-2.2,1.8-4,4-4s4,1.8,4,4C148,67.2,146.2,69,144,69z M160,57
	h-32V9h32V57z"/>
<path fill="#FFFFFF" d="M81.2,1H4.8C2.7,1,1,2.9,1,5v55.9C1,63,2,64,4,64h34.2l-2.7,9h15l-2.7-9H82c2,0,3-1,3-3.1V5
	C85,2.9,83.3,1,81.2,1z M81,50H5V5h76V50z"/>
</svg>
